# xmcd
#
# Track frame offsets: 
#        150
#        15067
#        28760
#        42965
#        57660
#        71180
#        84377
#        97462
#        112697
#        127352
#        141097
#        160800
#        180257
#        196637
#        212010
#        224777
#        239720
#        260942
#        277997
#        296092
#        315005
#        333567
#
# Disc length: 4690 seconds
#
# Revision: 1
# Processed by: cddbd v1.5.2PL0 Copyright (c) Steve Scherf et al.
# Submitted via: ExactAudioCopy v0.99pb5
#
DISCID=52125016
DTITLE=John Hiatt - Anthology - CD 1
DYEAR=2001
DGENRE=Pop
TTITLE0=Sure as I'm sittin' here
TTITLE1=Hangin' around the observartory
TTITLE2=Down home
TTITLE3=Washable ink
TTITLE4=Slug line
TTITLE5=Radio girl
TTITLE6=Pink bedroom
TTITLE7=It hasn't happened yet
TTITLE8=Spy boy
TTITLE9=Doll hospital
TTITLE10=My edge of the razor
TTITLE11=Riding with the king
TTITLE12=She loves the jerk
TTITLE13=I don't even try
TTITLE14=The love that harms
TTITLE15=The way we make a broken heart (with Rosanne Cash)
TTITLE16=When we ran
TTITLE17=The usual
TTITLE18=She said the same things to me
TTITLE19=Lipstick sunset
TTITLE20=Thank you girl
TTITLE21=Have a little faith in me
EXTD=
EXTT0=
EXTT1=
EXTT2=
EXTT3=
EXTT4=
EXTT5=
EXTT6=
EXTT7=
EXTT8=
EXTT9=
EXTT10=
EXTT11=
EXTT12=
EXTT13=
EXTT14=
EXTT15=
EXTT16=
EXTT17=
EXTT18=
EXTT19=
EXTT20=
EXTT21=
PLAYORDER=
